<svg width="64" height="64" viewBox="0 0 64 64" fill="none" xmlns="http://www.w3.org/2000/svg">
<path d="M34.6912 9.76821C37.6974 7.35002 41.4246 6.01649 45.2749 5.98145C53.5158 5.98145 60.6078 12.2366 63.8191 21.233H44.7322C42.7602 16.3871 39.2235 12.3489 34.6912 9.76821ZM18.698 31.9978C18.698 16.778 27.9565 4.00851 40.4353 0.5627C13.9172 -3.38771 0 14.1368 0 31.9978C0 46.3675 9.1183 58.0142 20.3534 58.0142C24.2037 57.9791 27.9308 56.6456 30.9371 54.2274C23.7004 50.2406 18.698 41.7897 18.698 31.9978ZM45.3518 42.4262C42.24 52.8045 34.6143 60.8145 25.1296 63.4329C46.3876 66.6151 59.5946 55.9685 64 42.4262H45.3518Z" fill="white"/>
</svg>
