<svg width="10" height="18" viewBox="0 0 10 18" fill="none" xmlns="http://www.w3.org/2000/svg">
<path d="M9.57449 2.85124C9.85454 2.52984 10.007 2.10475 9.99975 1.66552C9.99251 1.22629 9.82612 0.807212 9.53564 0.49658C9.24517 0.185948 8.85329 0.00801387 8.44256 0.000264141C8.03183 -0.00748559 7.63432 0.155554 7.33378 0.455035L0.463658 7.8019C0.166763 8.11979 0 8.55071 0 9C0 9.44929 0.166763 9.88021 0.463658 10.1981L7.33378 17.545C7.63432 17.8444 8.03183 18.0075 8.44256 17.9997C8.85329 17.992 9.24517 17.8141 9.53564 17.5034C9.82612 17.1928 9.99251 16.7737 9.99975 16.3345C10.007 15.8952 9.85454 15.4702 9.57449 15.1488L3.82473 9L9.57449 2.85124Z" fill="white"/>
</svg>
