<svg width="98" height="90" viewBox="0 0 98 90" fill="none" xmlns="http://www.w3.org/2000/svg">
<path fill-rule="evenodd" clip-rule="evenodd" d="M69.9687 42.1536L71.0399 36.7936H61.8197V29.4716L55.3475 30.476V52.3462C55.3475 59.9071 58.2337 62.157 66.1032 62.157H69.5486L70.6203 56.8443H66.5687C62.9839 56.8443 61.8192 55.9363 61.8192 51.9153V42.1536H69.9687ZM25.5 26.9344V50.4327C25.5 59.1427 29.4109 62.7795 37.9324 62.7795C46.7795 62.7795 50.6909 59.2384 50.6909 50.48V48.2312C50.6909 40 47.0584 35.9796 39.1431 35.9796C36.6282 35.9796 33.8809 36.5057 32.0182 37.9889V25.8815L25.5 26.9344ZM38.1649 41.2432C42.6349 41.2432 44.2187 43.0622 44.2187 48.4695V50.48C44.2187 55.7436 42.6349 57.5631 38.0719 57.5631C33.5089 57.5631 31.9246 55.7436 31.9246 50.4321V47.7045C31.9246 42.8707 33.5089 41.2432 38.1649 41.2432ZM85.6141 35.9796C77.0925 35.9796 73.181 39.6643 73.181 48.087V49.3792C73.181 57.371 76.5805 61.2472 84.5888 61.2472C87.1502 61.2472 89.7115 60.7695 91.5272 59.2852V60.2434C91.5272 64.7421 89.6185 66.2241 85.1479 66.2241H82.4715C80.9416 66.2521 80.2464 66.5314 79.3244 68.0847L79.3193 68.0824C71.6415 80.5706 58.312 88.1999 43.7855 88.1999C20.6075 88.1999 1.7516 68.8212 1.7516 44.9997C1.7516 21.1788 20.6075 1.80015 43.7855 1.80015C60.0659 1.80015 74.8765 11.4901 81.8058 26.5696H83.7371C76.6752 10.4224 61.0196 0 43.7855 0C19.6424 0 0 20.187 0 44.9997C0 69.813 19.6424 90 43.7855 90C57.9843 90 71.0875 83.0035 79.2563 71.3926H85.5205C93.7625 71.3926 98 68.1867 98 60.0034V47.6566C98 39.5206 93.949 35.9796 85.6141 35.9796ZM91.5743 50.1927C91.5743 54.6913 90.0376 56.0788 85.6146 56.0788C80.6314 56.0788 79.6538 54.3083 79.6538 49.0925V48.2791C79.6538 43.1095 80.5384 41.2432 85.6141 41.2432C90.5961 41.2432 91.5743 43.0622 91.5743 48.3264V50.1927Z" fill="white"/>
</svg>
