<svg width="47" height="44" viewBox="0 0 47 44" fill="none" xmlns="http://www.w3.org/2000/svg">
<g filter="url(#filter0_d_86_99)">
<path fill-rule="evenodd" clip-rule="evenodd" d="M31.8447 16.8614L32.271 14.7174H28.6017V11.7886L26.026 12.1904V20.9385C26.026 23.9628 27.1747 24.8628 30.3064 24.8628H31.6775L32.104 22.7377H30.4916C29.065 22.7377 28.6015 22.3745 28.6015 20.7661V16.8614H31.8447ZM14.148 10.7738V20.1731C14.148 23.6571 15.7043 25.1118 19.0956 25.1118C22.6163 25.1118 24.1729 23.6954 24.1729 20.192V19.2925C24.1729 16 22.7273 14.3918 19.5773 14.3918C18.5765 14.3918 17.4832 14.6023 16.7419 15.1956V10.3526L14.148 10.7738ZM19.1881 16.4973C20.967 16.4973 21.5972 17.2249 21.5972 19.3878V20.192C21.5972 22.2974 20.967 23.0253 19.1511 23.0253C17.3352 23.0253 16.7047 22.2974 16.7047 20.1728V19.0818C16.7047 17.1483 17.3352 16.4973 19.1881 16.4973ZM38.0709 14.3918C34.6797 14.3918 33.1231 15.8657 33.1231 19.2348V19.7517C33.1231 22.9484 34.4759 24.4989 37.6629 24.4989C38.6822 24.4989 39.7015 24.3078 40.4241 23.7141V24.0974C40.4241 25.8968 39.6645 26.4897 37.8854 26.4897H36.8203C36.2115 26.5008 35.9348 26.6126 35.5679 27.2339L35.5658 27.233C32.5104 32.2282 27.2058 35.2799 21.4248 35.2799C12.201 35.2799 4.69707 27.5285 4.69707 17.9999C4.69707 8.47153 12.201 0.720059 21.4248 0.720059C27.9038 0.720059 33.7978 4.59602 36.5554 10.6278H37.324C34.5136 4.16896 28.2833 0 21.4248 0C11.8169 0 4 8.07479 4 17.9999C4 27.9252 11.8169 36 21.4248 36C27.0754 36 32.2899 33.2014 35.5408 28.557H38.0337C41.3136 28.557 43 27.2747 43 24.0014V19.0626C43 15.8082 41.3879 14.3918 38.0709 14.3918ZM40.4428 20.0771C40.4428 21.8765 39.8313 22.4315 38.0711 22.4315C36.088 22.4315 35.699 21.7233 35.699 19.637V19.3116C35.699 17.2438 36.051 16.4973 38.0709 16.4973C40.0536 16.4973 40.4428 17.2249 40.4428 19.3306V20.0771Z" fill="white"/>
</g>
<defs>
<filter id="filter0_d_86_99" x="0" y="0" width="47" height="44" filterUnits="userSpaceOnUse" color-interpolation-filters="sRGB">
<feFlood flood-opacity="0" result="BackgroundImageFix"/>
<feColorMatrix in="SourceAlpha" type="matrix" values="0 0 0 0 0 0 0 0 0 0 0 0 0 0 0 0 0 0 127 0" result="hardAlpha"/>
<feOffset dy="4"/>
<feGaussianBlur stdDeviation="2"/>
<feComposite in2="hardAlpha" operator="out"/>
<feColorMatrix type="matrix" values="0 0 0 0 0 0 0 0 0 0 0 0 0 0 0 0 0 0 0.25 0"/>
<feBlend mode="normal" in2="BackgroundImageFix" result="effect1_dropShadow_86_99"/>
<feBlend mode="normal" in="SourceGraphic" in2="effect1_dropShadow_86_99" result="shape"/>
</filter>
</defs>
</svg>
