<svg width="129" height="73" viewBox="0 0 129 73" fill="none" xmlns="http://www.w3.org/2000/svg">
<path d="M81.0154 45.9602C80.3174 45.2623 79.4282 44.7872 78.4602 44.5947C77.4922 44.4022 76.4889 44.5011 75.5771 44.8788C74.6653 45.2566 73.8859 45.8962 73.3376 46.7169C72.7893 47.5375 72.4967 48.5023 72.4967 49.4892C72.4967 50.4762 72.7893 51.441 73.3376 52.2616C73.8859 53.0822 74.6653 53.7219 75.5771 54.0996C76.4889 54.4773 77.4922 54.5762 78.4602 54.3838C79.4282 54.1913 80.3174 53.7161 81.0154 53.0183C81.479 52.555 81.8469 52.0048 82.0978 51.3993C82.3488 50.7938 82.478 50.1447 82.478 49.4892C82.478 48.8337 82.3488 48.1847 82.0978 47.5792C81.8469 46.9736 81.479 46.4235 81.0154 45.9602ZM55.0399 27.0414C55.738 26.3433 56.2135 25.4538 56.406 24.4855C56.5986 23.5172 56.4998 22.5135 56.122 21.6014C55.7441 20.6893 55.1043 19.9097 54.2834 19.3612C53.4625 18.8127 52.4974 18.5199 51.5102 18.5199C50.5229 18.5199 49.5578 18.8127 48.7369 19.3612C47.916 19.9097 47.2762 20.6893 46.8983 21.6014C46.5205 22.5135 46.4217 23.5172 46.6143 24.4855C46.8069 25.4538 47.2823 26.3433 47.9804 27.0414C48.4439 27.505 48.9942 27.8727 49.5998 28.1235C50.2055 28.3744 50.8546 28.5035 51.5102 28.5035C52.1657 28.5035 52.8148 28.3744 53.4205 28.1235C54.0261 27.8727 54.5764 27.505 55.0399 27.0414ZM55.0399 45.9602C54.3419 45.2619 53.4524 44.7862 52.4841 44.5935C51.5157 44.4007 50.5119 44.4995 49.5997 44.8772C48.6875 45.255 47.9077 45.8948 47.3591 46.7157C46.8105 47.5367 46.5177 48.5019 46.5177 49.4892C46.5177 50.4766 46.8105 51.4418 47.3591 52.2627C47.9077 53.0837 48.6875 53.7235 49.5997 54.1012C50.5119 54.479 51.5157 54.5777 52.4841 54.385C53.4524 54.1922 54.3419 53.7166 55.0399 53.0183C55.9757 52.0822 56.5013 50.8128 56.5013 49.4892C56.5013 48.1656 55.9757 46.8962 55.0399 45.9602ZM73.9572 27.0414C74.6552 27.7392 75.5444 28.2144 76.5124 28.4069C77.4804 28.5993 78.4837 28.5005 79.3955 28.1227C80.3074 27.745 81.0867 27.1054 81.635 26.2847C82.1833 25.4641 82.4759 24.4993 82.4759 23.5123C82.4759 22.5254 82.1833 21.5606 81.635 20.74C81.0867 19.9193 80.3074 19.2797 79.3955 18.902C78.4837 18.5242 77.4804 18.4253 76.5124 18.6178C75.5444 18.8103 74.6552 19.2855 73.9572 19.9833C73.4936 20.4466 73.1257 20.9967 72.8748 21.6023C72.6238 22.2078 72.4946 22.8569 72.4946 23.5123C72.4946 24.1678 72.6238 24.8169 72.8748 25.4224C73.1257 26.028 73.4936 26.5781 73.9572 27.0414ZM68.2359 69.2518C68.2359 69.9912 68.0167 70.7139 67.6059 71.3286C67.1952 71.9433 66.6114 72.4224 65.9283 72.7053C65.2453 72.9882 64.4937 73.0623 63.7686 72.918C63.0435 72.7738 62.3775 72.4178 61.8547 71.895C61.3319 71.3722 60.9759 70.7062 60.8317 69.9811C60.6874 69.256 60.7615 68.5044 61.0444 67.8214C61.3273 67.1383 61.8064 66.5545 62.4211 66.1438C63.0358 65.733 63.7586 65.5138 64.4979 65.5138C65.4893 65.5138 66.44 65.9076 67.141 66.6087C67.8421 67.3097 68.2359 68.2605 68.2359 69.2518ZM64.4979 0.0117188C63.7586 0.0117188 63.0358 0.23095 62.4211 0.641689C61.8064 1.05243 61.3273 1.63622 61.0444 2.31925C60.7615 3.00229 60.6874 3.75388 60.8317 4.47898C60.9759 5.20409 61.3319 5.87015 61.8547 6.39293C62.3775 6.9157 63.0435 7.2717 63.7686 7.41593C64.4937 7.56017 65.2453 7.48615 65.9283 7.20323C66.6114 6.92031 67.1952 6.44118 67.6059 5.82647C68.0167 5.21175 68.2359 4.48905 68.2359 3.74973C68.2359 2.75835 67.8421 1.80757 67.141 1.10656C66.44 0.405543 65.4893 0.0117188 64.4979 0.0117188ZM31.7468 32.7628C31.0075 32.7628 30.2848 32.982 29.6701 33.3927C29.0554 33.8035 28.5763 34.3873 28.2933 35.0703C28.0104 35.7533 27.9364 36.5049 28.0806 37.23C28.2248 37.9551 28.5809 38.6212 29.1036 39.144C29.6264 39.6667 30.2925 40.0228 31.0176 40.167C31.7427 40.3112 32.4943 40.2372 33.1773 39.9543C33.8603 39.6713 34.4441 39.1922 34.8549 38.5775C35.2656 37.9628 35.4848 37.2401 35.4848 36.5008C35.4848 35.5094 35.091 34.5586 34.39 33.8576C33.689 33.1566 32.7382 32.7628 31.7468 32.7628ZM97.2489 32.7628C96.5096 32.7628 95.7869 32.982 95.1722 33.3927C94.5575 33.8035 94.0783 34.3873 93.7954 35.0703C93.5125 35.7533 93.4385 36.5049 93.5827 37.23C93.7269 37.9551 94.083 38.6212 94.6057 39.144C95.1285 39.6667 95.7946 40.0228 96.5197 40.167C97.2448 40.3112 97.9964 40.2372 98.6794 39.9543C99.3624 39.6713 99.9462 39.1922 100.357 38.5775C100.768 37.9628 100.987 37.2401 100.987 36.5008C100.987 35.5095 100.593 34.559 99.8917 33.858C99.1907 33.1571 98.2402 32.7631 97.2489 32.7628Z" fill="black"/>
<path d="M64.4978 73C63.7565 72.9997 63.032 72.7796 62.4158 72.3676C61.7996 71.9556 61.3194 71.3701 61.0359 70.6851C60.7525 70.0002 60.6785 69.2466 60.8232 68.5196C60.968 67.7926 61.3251 67.1249 61.8494 66.6009C62.3737 66.0768 63.0415 65.72 63.7686 65.5755C64.4956 65.431 65.2492 65.5053 65.934 65.789C66.6188 66.0727 67.2041 66.5532 67.6159 67.1695C68.0277 67.7859 68.2475 68.5105 68.2475 69.2518C68.2463 70.2458 67.8509 71.1987 67.1479 71.9014C66.4449 72.6041 65.4918 72.9992 64.4978 73ZM64.4978 65.5254C63.7608 65.5254 63.0404 65.7439 62.4276 66.1534C61.8148 66.5629 61.3371 67.1448 61.0551 67.8257C60.7731 68.5067 60.6993 69.2559 60.843 69.9788C60.9868 70.7016 61.3417 71.3656 61.8629 71.8867C62.384 72.4079 63.048 72.7628 63.7708 72.9066C64.4937 73.0503 65.2429 72.9765 65.9238 72.6945C66.6047 72.4125 67.1867 71.9348 67.5962 71.322C68.0056 70.7092 68.2242 69.9888 68.2242 69.2518C68.223 68.2638 67.8301 67.3167 67.1315 66.6181C66.4329 65.9195 65.4858 65.5266 64.4978 65.5254ZM51.5101 54.489C50.3535 54.4866 49.2335 54.0833 48.3409 53.3477C47.4484 52.6121 46.8385 51.5898 46.6152 50.4549C46.392 49.32 46.5691 48.1429 47.1165 47.124C47.6639 46.1051 48.5477 45.3076 49.6172 44.8673C50.6867 44.4269 51.8758 44.3711 52.9819 44.7093C54.088 45.0474 55.0426 45.7586 55.683 46.7218C56.3235 47.6849 56.6102 48.8403 56.4942 49.991C56.3783 51.1418 55.8669 52.2168 55.0472 53.0328C54.5825 53.4964 54.0308 53.8637 53.4238 54.1136C52.8169 54.3634 52.1665 54.491 51.5101 54.489ZM51.5101 44.5083C50.3575 44.5086 49.2406 44.9086 48.3499 45.6402C47.4591 46.3717 46.8496 47.3895 46.6252 48.5201C46.4008 49.6507 46.5754 50.8241 47.1193 51.8404C47.6631 52.8566 48.5426 53.6528 49.6077 54.0933C50.6728 54.5339 51.8578 54.5914 52.9606 54.2561C54.0634 53.9208 55.0158 53.2135 55.6555 52.2547C56.2952 51.2959 56.5826 50.1449 56.4688 48.9979C56.3549 47.8509 55.8469 46.7788 55.0312 45.9645C54.5695 45.5012 54.0207 45.134 53.4163 44.8841C52.812 44.6342 52.1641 44.5064 51.5101 44.5083ZM77.4841 54.489C76.3275 54.4866 75.2075 54.0833 74.3149 53.3477C73.4224 52.6121 72.8125 51.5898 72.5892 50.4549C72.3659 49.32 72.5431 48.1429 73.0905 47.124C73.6379 46.1051 74.5216 45.3076 75.5912 44.8673C76.6607 44.4269 77.8498 44.3711 78.9559 44.7093C80.0619 45.0474 81.0165 45.7586 81.657 46.7218C82.2974 47.6849 82.5841 48.8403 82.4682 49.991C82.3522 51.1418 81.8408 52.2168 81.0211 53.0328C80.5563 53.4963 80.0047 53.8635 79.3977 54.1133C78.7908 54.3632 78.1404 54.4909 77.4841 54.489ZM77.4841 44.5083C76.3322 44.5089 75.2162 44.9089 74.3262 45.6401C73.4362 46.3713 72.8272 47.3885 72.6031 48.5183C72.379 49.6482 72.5536 50.8208 73.0972 51.8363C73.6407 52.8519 74.5196 53.6475 75.584 54.0877C76.6484 54.528 77.8325 54.5855 78.9346 54.2505C80.0367 53.9155 80.9885 53.2087 81.6279 52.2506C82.2673 51.2925 82.5547 50.1424 82.4411 48.9962C82.3276 47.8499 81.8201 46.7785 81.0051 45.9645C80.5435 45.5012 79.9946 45.134 79.3903 44.8841C78.7859 44.6342 78.1381 44.5064 77.4841 44.5083ZM97.2489 40.2489C96.5076 40.2487 95.7831 40.0286 95.1669 39.6166C94.5507 39.2045 94.0705 38.619 93.787 37.9341C93.5035 37.2492 93.4295 36.4956 93.5743 35.7686C93.7191 35.0416 94.0762 34.3739 94.6004 33.8498C95.1247 33.3258 95.7926 32.9689 96.5196 32.8244C97.2467 32.6799 98.0002 32.7542 98.685 33.038C99.3699 33.3217 99.9552 33.8021 100.367 34.4185C100.779 35.0348 100.999 35.7595 100.999 36.5007C100.997 37.4947 100.602 38.4476 99.8989 39.1504C99.1959 39.8531 98.2429 40.2482 97.2489 40.2489ZM97.2489 32.7744C96.5119 32.7744 95.7914 32.9929 95.1786 33.4024C94.5658 33.8118 94.0882 34.3938 93.8061 35.0747C93.5241 35.7556 93.4503 36.5049 93.5941 37.2277C93.7379 37.9506 94.0928 38.6145 94.6139 39.1357C95.1351 39.6568 95.799 40.0117 96.5219 40.1555C97.2447 40.2993 97.994 40.2255 98.6749 39.9435C99.3558 39.6614 99.9378 39.1838 100.347 38.571C100.757 37.9582 100.975 37.2377 100.975 36.5007C100.974 35.5128 100.581 34.5656 99.8825 33.8671C99.184 33.1685 98.2368 32.7755 97.2489 32.7744ZM31.7468 40.2489C31.0055 40.2487 30.281 40.0286 29.6648 39.6166C29.0486 39.2045 28.5684 38.619 28.2849 37.9341C28.0014 37.2492 27.9274 36.4956 28.0722 35.7686C28.217 35.0416 28.5741 34.3739 29.0983 33.8498C29.6226 33.3258 30.2905 32.9689 31.0175 32.8244C31.7446 32.6799 32.4981 32.7542 33.1829 33.038C33.8678 33.3217 34.4531 33.8021 34.8649 34.4185C35.2766 35.0348 35.4964 35.7595 35.4964 36.5007C35.4953 37.4947 35.0998 38.4476 34.3968 39.1504C33.6938 39.8531 32.7408 40.2482 31.7468 40.2489ZM31.7468 32.7744C31.0098 32.7744 30.2893 32.9929 29.6765 33.4024C29.0637 33.8118 28.5861 34.3938 28.304 35.0747C28.022 35.7556 27.9482 36.5049 28.092 37.2277C28.2358 37.9506 28.5907 38.6145 29.1118 39.1357C29.633 39.6568 30.2969 40.0117 31.0198 40.1555C31.7426 40.2993 32.4919 40.2255 33.1728 39.9435C33.8537 39.6614 34.4357 39.1838 34.8451 38.571C35.2546 37.9582 35.4731 37.2377 35.4731 36.5007C35.472 35.5128 35.079 34.5656 34.3804 33.8671C33.6819 33.1685 32.7347 32.7755 31.7468 32.7744ZM77.4841 28.515C76.3268 28.515 75.2054 28.1136 74.3109 27.3795C73.4164 26.6453 72.8041 25.6236 72.5784 24.4886C72.3527 23.3536 72.5275 22.1755 73.0731 21.1549C73.6186 20.1343 74.5012 19.3345 75.5703 18.8917C76.6395 18.4489 77.8291 18.3905 78.9365 18.7265C80.0439 19.0624 81.0006 19.772 81.6434 20.7342C82.2863 21.6965 82.5757 22.8518 82.4622 24.0035C82.3487 25.1552 81.8395 26.2318 81.0211 27.0501C80.5576 27.5159 80.0064 27.8852 79.3993 28.1367C78.7922 28.3881 78.1412 28.5167 77.4841 28.515ZM73.9616 27.0341C74.658 27.7307 75.5454 28.2051 76.5115 28.3974C77.4776 28.5896 78.479 28.4911 79.389 28.1142C80.2991 27.7373 81.077 27.099 81.6243 26.28C82.1715 25.461 82.4637 24.498 82.4637 23.513C82.4637 22.528 82.1715 21.5651 81.6243 20.7461C81.077 19.9271 80.2991 19.2887 79.389 18.9118C78.479 18.5349 77.4776 18.4364 76.5115 18.6287C75.5454 18.8209 74.658 19.2954 73.9616 19.992C73.4959 20.4526 73.1264 21.0011 72.8742 21.6056C72.6221 22.2101 72.4924 22.8586 72.4926 23.5136C72.4929 24.1686 72.6231 24.817 72.8758 25.4213C73.1284 26.0256 73.4985 26.5738 73.9645 27.0341H73.9616ZM51.5072 28.515C50.1806 28.515 48.9083 27.988 47.9702 27.05C47.0322 26.1119 46.5052 24.8396 46.5052 23.513C46.5052 22.1864 47.0322 20.9141 47.9702 19.9761C48.9083 19.038 50.1806 18.511 51.5072 18.511C52.4965 18.511 53.4637 18.8043 54.2863 19.3539C55.1089 19.9036 55.7501 20.6848 56.1287 21.5988C56.5073 22.5128 56.6063 23.5186 56.4133 24.4889C56.2203 25.4593 55.7439 26.3505 55.0443 27.0501C54.5813 27.5158 54.0305 27.885 53.4239 28.1365C52.8172 28.3879 52.1668 28.5166 51.5101 28.515H51.5072ZM51.5072 18.5358C50.3557 18.5365 49.2401 18.9365 48.3505 19.6675C47.4609 20.3986 46.8522 21.4155 46.6282 22.5449C46.4043 23.6744 46.5789 24.8466 47.1222 25.8618C47.6656 26.877 48.5442 27.6724 49.6083 28.1124C50.6723 28.5525 51.8561 28.61 52.9578 28.2752C54.0595 27.9403 55.011 27.2339 55.6502 26.2761C56.2895 25.3184 56.5769 24.1686 56.4635 23.0228C56.35 21.8769 55.8428 20.8058 55.0282 19.992C54.5667 19.5295 54.0182 19.1627 53.4145 18.9128C52.8107 18.6629 52.1635 18.5348 51.5101 18.5358H51.5072ZM64.4949 7.49936C63.7533 7.49936 63.0283 7.27945 62.4117 6.86743C61.7951 6.45541 61.3145 5.86979 61.0307 5.18462C60.7469 4.49946 60.6726 3.74552 60.8173 3.01816C60.962 2.29079 61.3191 1.62266 61.8435 1.09826C62.3679 0.573857 63.036 0.216732 63.7634 0.0720503C64.4907 -0.0726317 65.2447 0.00162563 65.9298 0.28543C66.615 0.569234 67.2006 1.04985 67.6126 1.66648C68.0247 2.28311 68.2446 3.00807 68.2446 3.74968C68.2434 4.7433 67.8484 5.69594 67.1461 6.39881C66.4438 7.10168 65.4914 7.49743 64.4978 7.49936H64.4949ZM64.4949 0.0233094C63.7579 0.0233094 63.0374 0.241847 62.4246 0.651307C61.8118 1.06077 61.3342 1.64276 61.0522 2.32366C60.7701 3.00457 60.6963 3.75382 60.8401 4.47667C60.9839 5.19952 61.3388 5.86348 61.86 6.38462C62.3811 6.90577 63.0451 7.26067 63.7679 7.40445C64.4908 7.54823 65.24 7.47445 65.9209 7.19241C66.6018 6.91036 67.1838 6.43274 67.5933 5.81994C68.0027 5.20714 68.2213 4.48669 68.2213 3.74968C68.2201 2.76224 67.8276 1.81554 67.1296 1.11705C66.4317 0.41855 65.4853 0.0252358 64.4978 0.0233094H64.4949Z" fill="black"/>
<path d="M55.9732 36.5008C55.9729 34.7965 56.478 33.1305 57.4247 31.7133C58.3713 30.2962 59.717 29.1916 61.2915 28.5392C62.8659 27.8869 64.5985 27.7162 66.27 28.0486C67.9415 28.381 69.4769 29.2016 70.682 30.4067C71.8871 31.6118 72.7078 33.1472 73.0402 34.8188C73.3726 36.4903 73.2019 38.2228 72.5495 39.7973C71.8972 41.3718 70.7926 42.7174 69.3755 43.6641C67.9583 44.6107 66.2922 45.1159 64.588 45.1156C62.3032 45.1156 60.112 44.2079 58.4964 42.5924C56.8808 40.9768 55.9732 38.7856 55.9732 36.5008ZM78.962 36.5008C78.962 37.5681 79.2785 38.6115 79.8715 39.499C80.4645 40.3865 81.3073 41.0782 82.2934 41.4866C83.2795 41.8951 84.3646 42.0019 85.4114 41.7937C86.4583 41.5855 87.4199 41.0715 88.1746 40.3168C88.9293 39.562 89.4433 38.6005 89.6515 37.5536C89.8598 36.5068 89.7529 35.4217 89.3444 34.4356C88.936 33.4495 88.2443 32.6066 87.3568 32.0137C86.4693 31.4207 85.426 31.1042 84.3586 31.1042C82.9273 31.1042 81.5547 31.6727 80.5426 32.6848C79.5306 33.6969 78.962 35.0695 78.962 36.5008ZM50.0349 36.5008C50.0349 35.4334 49.7184 34.3901 49.1254 33.5026C48.5324 32.6151 47.6896 31.9234 46.7035 31.515C45.7174 31.1065 44.6323 30.9996 43.5854 31.2079C42.5386 31.4161 41.577 31.9301 40.8223 32.6848C40.0675 33.4395 39.5536 34.4011 39.3453 35.448C39.1371 36.4948 39.244 37.5799 39.6524 38.566C40.0609 39.5521 40.7526 40.3949 41.6401 40.9879C42.5275 41.5809 43.5709 41.8974 44.6383 41.8974C46.0695 41.8974 47.4422 41.3288 48.4542 40.3168C49.4663 39.3047 50.0349 37.9321 50.0349 36.5008ZM64.4977 50.9651C63.4303 50.9651 62.3869 51.2816 61.4993 51.8747C60.6118 52.4677 59.9201 53.3106 59.5117 54.2968C59.1033 55.283 58.9965 56.3682 59.2049 57.415C59.4132 58.4619 59.9274 59.4235 60.6822 60.1782C61.4371 60.9329 62.3988 61.4467 63.4458 61.6548C64.4927 61.8629 65.5778 61.7558 66.5639 61.3471C67.55 60.9384 68.3927 60.2465 68.9855 59.3588C69.5783 58.4712 69.8946 57.4277 69.8943 56.3602C69.8939 54.9292 69.3252 53.5569 68.3132 52.5452C67.3012 51.5334 65.9287 50.9651 64.4977 50.9651ZM64.4977 22.038C65.5651 22.038 66.6084 21.7215 67.4959 21.1285C68.3834 20.5355 69.0751 19.6926 69.4835 18.7065C69.892 17.7204 69.9989 16.6354 69.7906 15.5885C69.5824 14.5417 69.0684 13.5801 68.3137 12.8254C67.559 12.0706 66.5974 11.5567 65.5505 11.3484C64.5037 11.1402 63.4186 11.2471 62.4325 11.6555C61.4464 12.064 60.6036 12.7557 60.0106 13.6431C59.4176 14.5306 59.1011 15.574 59.1011 16.6413C59.1011 18.0726 59.6697 19.4453 60.6817 20.4573C61.6938 21.4694 63.0664 22.038 64.4977 22.038ZM84.1824 56.1811C83.6813 56.6826 83.3401 57.3214 83.2019 58.0168C83.0638 58.7122 83.1349 59.4329 83.4064 60.0879C83.6778 60.7428 84.1373 61.3026 84.7268 61.6964C85.3163 62.0902 86.0094 62.3004 86.7183 62.3004C87.4273 62.3004 88.1204 62.0902 88.7099 61.6964C89.2994 61.3026 89.7589 60.7428 90.0303 60.0879C90.3018 59.4329 90.3729 58.7122 90.2348 58.0168C90.0966 57.3214 89.7554 56.6826 89.2543 56.1811C88.5817 55.5086 87.6695 55.1308 86.7183 55.1308C85.7672 55.1308 84.855 55.5086 84.1824 56.1811ZM84.1824 11.75C83.6813 12.2515 83.3401 12.8903 83.2019 13.5857C83.0638 14.2811 83.1349 15.0018 83.4064 15.6568C83.6778 16.3117 84.1373 16.8715 84.7268 17.2653C85.3163 17.6591 86.0094 17.8693 86.7183 17.8693C87.4273 17.8693 88.1204 17.6591 88.7099 17.2653C89.2994 16.8715 89.7589 16.3117 90.0303 15.6568C90.3018 15.0018 90.3729 14.2811 90.2348 13.5857C90.0966 12.8903 89.7554 12.2515 89.2543 11.75C88.5817 11.0775 87.6695 10.6997 86.7183 10.6997C85.7672 10.6997 84.855 11.0775 84.1824 11.75ZM39.7469 56.1811C39.2456 56.6825 38.9042 57.3213 38.7659 58.0168C38.6276 58.7122 38.6986 59.433 38.97 60.0881C39.2413 60.7432 39.7008 61.3031 40.2904 61.697C40.88 62.0909 41.5731 62.3012 42.2822 62.3012C42.9912 62.3012 43.6843 62.0909 44.2739 61.697C44.8635 61.3031 45.323 60.7432 45.5943 60.0881C45.8657 59.433 45.9367 58.7122 45.7984 58.0168C45.6601 57.3213 45.3187 56.6825 44.8174 56.1811C44.4845 55.848 44.0893 55.5837 43.6543 55.4034C43.2193 55.2231 42.753 55.1303 42.2822 55.1303C41.8113 55.1303 41.345 55.2231 40.91 55.4034C40.475 55.5837 40.0798 55.848 39.7469 56.1811ZM39.7469 11.75C39.2456 12.2514 38.9042 12.8902 38.7659 13.5857C38.6276 14.2811 38.6986 15.0019 38.97 15.657C39.2413 16.3121 39.7008 16.872 40.2904 17.2659C40.88 17.6598 41.5731 17.8701 42.2822 17.8701C42.9912 17.8701 43.6843 17.6598 44.2739 17.2659C44.8635 16.872 45.323 16.3121 45.5943 15.657C45.8657 15.0019 45.9367 14.2811 45.7984 13.5857C45.6601 12.8902 45.3187 12.2514 44.8174 11.75C44.4845 11.4169 44.0893 11.1526 43.6543 10.9723C43.2193 10.792 42.753 10.6992 42.2822 10.6992C41.8113 10.6992 41.345 10.792 40.91 10.9723C40.475 11.1526 40.0798 11.4169 39.7469 11.75Z" fill="black"/>
<path d="M86.7149 62.3117C85.8831 62.3113 85.0772 62.0224 84.4345 61.4944C83.7918 60.9663 83.352 60.2317 83.1902 59.4158C83.0284 58.5999 83.1545 57.7531 83.547 57.0197C83.9396 56.2863 84.5743 55.7118 85.343 55.3939C86.1116 55.076 86.9668 55.0345 87.7626 55.2765C88.5585 55.5185 89.2458 56.0289 89.7075 56.7208C90.1692 57.4127 90.3767 58.2433 90.2946 59.0711C90.2126 59.8988 89.846 60.6725 89.2574 61.2603C88.9236 61.5942 88.5272 61.8589 88.0909 62.0393C87.6546 62.2197 87.1871 62.3123 86.7149 62.3117ZM86.7149 55.1429C85.8882 55.1431 85.087 55.4299 84.448 55.9546C83.8091 56.4792 83.3718 57.2092 83.2107 58.0202C83.0496 58.8311 83.1747 59.6728 83.5647 60.4018C83.9546 61.1309 84.5853 61.7021 85.3493 62.0183C86.1132 62.3344 86.9631 62.3759 87.7542 62.1356C88.5453 61.8953 89.2286 61.3882 89.6877 60.7006C90.1468 60.0129 90.3532 59.1874 90.2718 58.3647C90.1905 57.5419 89.8263 56.7728 89.2414 56.1884C88.9096 55.8568 88.5157 55.5937 88.0822 55.4144C87.6487 55.235 87.1841 55.1427 86.7149 55.1429ZM42.2824 62.3117C41.4506 62.3113 40.6446 62.0224 40.0019 61.4944C39.3592 60.9663 38.9195 60.2317 38.7577 59.4158C38.5958 58.5999 38.7219 57.7531 39.1145 57.0197C39.507 56.2863 40.1417 55.7118 40.9104 55.3939C41.6791 55.076 42.5342 55.0345 43.3301 55.2765C44.1259 55.5185 44.8132 56.0289 45.2749 56.7208C45.7366 57.4127 45.9441 58.2433 45.8621 59.0711C45.78 59.8988 45.4135 60.6725 44.8249 61.2603C44.4911 61.5943 44.0948 61.8591 43.6585 62.0395C43.2222 62.2199 42.7545 62.3124 42.2824 62.3117ZM39.7472 56.1812C39.2472 56.6811 38.9068 57.3181 38.7688 58.0116C38.6309 58.705 38.7017 59.4238 38.9723 60.0771C39.2429 60.7303 39.7011 61.2886 40.289 61.6814C40.8769 62.0742 41.5681 62.2839 42.2751 62.2839C42.9822 62.2839 43.6733 62.0742 44.2612 61.6814C44.8491 61.2886 45.3073 60.7303 45.5779 60.0771C45.8485 59.4238 45.9193 58.705 45.7814 58.0116C45.6434 57.3181 45.303 56.6811 44.803 56.1812C44.132 55.5117 43.2229 55.1358 42.2751 55.1358C41.3273 55.1358 40.4182 55.5117 39.7472 56.1812ZM64.5023 61.7685C63.4327 61.7682 62.3872 61.4508 61.498 60.8564C60.6088 60.2619 59.9159 59.4172 59.5068 58.4289C59.0976 57.4407 58.9907 56.3533 59.1996 55.3043C59.4084 54.2553 59.9236 53.2917 60.68 52.5355C61.4365 51.7793 62.4001 51.2644 63.4492 51.0558C64.4983 50.8472 65.5856 50.9544 66.5738 51.3638C67.5619 51.7732 68.4065 52.4664 69.0007 53.3557C69.5949 54.2451 69.912 55.2907 69.912 56.3603C69.9105 57.7952 69.3394 59.1708 68.3242 60.1848C67.309 61.1989 65.9328 61.7685 64.4979 61.7685H64.5023ZM64.5023 50.9753C63.4367 50.9753 62.395 51.2913 61.509 51.8833C60.6229 52.4753 59.9323 53.3168 59.5245 54.3013C59.1168 55.2858 59.0101 56.3691 59.218 57.4143C59.4258 58.4594 59.939 59.4195 60.6925 60.173C61.446 60.9265 62.406 61.4396 63.4512 61.6475C64.4963 61.8554 65.5797 61.7487 66.5642 61.3409C67.5487 60.9331 68.3901 60.2426 68.9822 59.3565C69.5742 58.4705 69.8902 57.4288 69.8902 56.3632C69.8902 55.6553 69.7507 54.9543 69.4796 54.3003C69.2086 53.6463 68.8113 53.0522 68.3106 52.5518C67.8098 52.0515 67.2153 51.6547 66.5611 51.3842C65.9069 51.1137 65.2059 50.9747 64.4979 50.9753H64.5023ZM64.5926 45.1273C62.5968 45.1272 60.6628 44.4351 59.1201 43.169C57.5774 41.9028 56.5214 40.1409 56.1321 38.1835C55.7429 36.226 56.0443 34.1942 56.9852 32.4341C57.926 30.674 59.448 29.2946 61.2919 28.5309C63.1358 27.7672 65.1874 27.6665 67.0972 28.2459C69.007 28.8253 70.6569 30.049 71.7656 31.7084C72.8744 33.3679 73.3734 35.3604 73.1778 37.3466C72.9821 39.3327 72.1038 41.1896 70.6925 42.6008C69.8927 43.4047 68.9413 44.0419 67.8935 44.4756C66.8457 44.9092 65.7222 45.1307 64.5882 45.1273H64.5926ZM64.5926 27.8962C62.8908 27.8962 61.2272 28.4009 59.8121 29.3463C58.3971 30.2918 57.2942 31.6357 56.643 33.208C55.9917 34.7803 55.8213 36.5104 56.1533 38.1795C56.4853 39.8486 57.3048 41.3818 58.5082 42.5852C59.7116 43.7886 61.2448 44.6081 62.9139 44.9401C64.583 45.2721 66.3131 45.1017 67.8854 44.4504C69.4577 43.7992 70.8016 42.6963 71.7471 41.2813C72.6925 39.8663 73.1972 38.2026 73.1972 36.5008C73.1949 34.2187 72.287 32.0308 70.6729 30.4175C69.0587 28.8042 66.8703 27.8974 64.5882 27.8962H64.5926ZM84.3632 41.9076C83.2938 41.9076 82.2485 41.5905 81.3593 40.9964C80.4702 40.4023 79.7772 39.5579 79.368 38.5699C78.9587 37.5819 78.8517 36.4948 79.0603 35.446C79.2689 34.3972 79.7839 33.4338 80.54 32.6776C81.2962 31.9215 82.2596 31.4065 83.3084 31.1979C84.3572 30.9893 85.4443 31.0963 86.4323 31.5056C87.4203 31.9148 88.2647 32.6078 88.8588 33.497C89.4529 34.3861 89.77 35.4314 89.77 36.5008C89.7685 37.9351 89.1977 39.3101 88.1831 40.3239C87.1686 41.3376 85.7931 41.9072 84.3588 41.9076H84.3632ZM84.3632 31.1158C83.2976 31.1158 82.2559 31.4318 81.3699 32.0239C80.4838 32.6159 79.7932 33.4574 79.3855 34.4419C78.9777 35.4264 78.871 36.5097 79.0788 37.5548C79.2867 38.6 79.7999 39.56 80.5534 40.3135C81.3069 41.0671 82.2669 41.5802 83.3121 41.7881C84.3572 41.996 85.4406 41.8893 86.4251 41.4815C87.4096 41.0737 88.251 40.3831 88.8431 39.4971C89.4351 38.611 89.7511 37.5694 89.7511 36.5037C89.7511 35.7958 89.6116 35.0948 89.3405 34.4409C89.0695 33.7869 88.6722 33.1927 88.1715 32.6924C87.6707 32.192 87.0762 31.7952 86.422 31.5247C85.7678 31.2542 85.0668 31.1153 84.3588 31.1158H84.3632ZM44.6429 41.9076C43.5735 41.9076 42.5281 41.5905 41.639 40.9964C40.7499 40.4023 40.0568 39.5579 39.6476 38.5699C39.2384 37.5819 39.1313 36.4948 39.3399 35.446C39.5486 34.3972 40.0635 33.4338 40.8197 32.6776C41.5758 31.9215 42.5392 31.4065 43.588 31.1979C44.6369 30.9893 45.724 31.0963 46.712 31.5056C47.6999 31.9148 48.5444 32.6078 49.1385 33.497C49.7326 34.3861 50.0497 35.4314 50.0497 36.5008C50.0485 37.9352 49.4779 39.3104 48.4632 40.3243C47.4486 41.3381 46.0729 41.9076 44.6385 41.9076H44.6429ZM44.6429 31.1158C43.5772 31.1158 42.5355 31.4318 41.6495 32.0239C40.7635 32.6159 40.0729 33.4574 39.6651 34.4419C39.2573 35.4264 39.1506 36.5097 39.3585 37.5548C39.5664 38.6 40.0795 39.56 40.8331 40.3135C41.5866 41.0671 42.5466 41.5802 43.5917 41.7881C44.6369 41.996 45.7202 41.8893 46.7047 41.4815C47.6892 41.0737 48.5307 40.3831 49.1227 39.4971C49.7148 38.611 50.0307 37.5694 50.0307 36.5037C50.0307 35.7958 49.8912 35.0948 49.6202 34.4409C49.3492 33.7869 48.9519 33.1927 48.4511 32.6924C47.9504 32.192 47.3559 31.7952 46.7017 31.5247C46.0475 31.2542 45.3464 31.1153 44.6385 31.1158H44.6429ZM64.4979 22.0467C63.4284 22.0456 62.3832 21.7273 61.4945 21.1322C60.6059 20.5371 59.9136 19.6919 59.5052 18.7034C59.0969 17.7149 58.9908 16.6275 59.2003 15.5787C59.4099 14.5299 59.9257 13.5668 60.6826 12.8112C61.4395 12.0555 62.4035 11.5412 63.4526 11.3333C64.5017 11.1255 65.5889 11.2333 66.5768 11.6433C67.5646 12.0532 68.4087 12.7469 69.0024 13.6365C69.5961 14.5262 69.9126 15.5718 69.912 16.6414C69.9097 18.0758 69.3383 19.4506 68.3232 20.4641C67.3081 21.4775 65.9323 22.0467 64.4979 22.0467ZM64.4979 11.2535C63.4323 11.2535 62.3906 11.5695 61.5046 12.1615C60.6186 12.7535 59.928 13.595 59.5202 14.5795C59.1124 15.564 59.0057 16.6474 59.2136 17.6925C59.4215 18.7376 59.9346 19.6977 60.6881 20.4512C61.4416 21.2047 62.4017 21.7178 63.4468 21.9257C64.492 22.1336 65.5753 22.0269 66.5598 21.6191C67.5443 21.2113 68.3858 20.5208 68.9778 19.6347C69.5698 18.7487 69.8858 17.707 69.8858 16.6414C69.8854 15.2127 69.3176 13.8426 68.3072 12.8325C67.2969 11.8224 65.9266 11.2549 64.4979 11.2549V11.2535ZM86.7149 17.8777C85.8835 17.8771 85.078 17.5882 84.4357 17.0604C83.7933 16.5325 83.3539 15.7982 83.1922 14.9826C83.0305 14.1671 83.1566 13.3207 83.549 12.5877C83.9414 11.8547 84.5758 11.2804 85.3441 10.9627C86.1124 10.645 86.9672 10.6035 87.7627 10.8453C88.5581 11.0871 89.2452 11.5972 89.7067 12.2888C90.1683 12.9804 90.3757 13.8105 90.2938 14.6379C90.2119 15.4653 89.8456 16.2387 89.2574 16.8263C88.9239 17.1607 88.5276 17.4258 88.0913 17.6065C87.6549 17.7872 87.1872 17.8798 86.7149 17.8791V17.8777ZM86.7149 10.7103C85.8882 10.7105 85.087 10.9974 84.448 11.522C83.8091 12.0467 83.3718 12.7767 83.2107 13.5876C83.0496 14.3985 83.1747 15.2402 83.5647 15.9693C83.9546 16.6983 84.5853 17.2696 85.3493 17.5857C86.1132 17.9019 86.9631 17.9433 87.7542 17.703C88.5453 17.4628 89.2286 16.9556 89.6877 16.268C90.1468 15.5804 90.3532 14.7549 90.2718 13.9321C90.1905 13.1093 89.8263 12.3402 89.2414 11.7559C88.9097 11.4242 88.5158 11.1612 88.0822 10.982C87.6487 10.8029 87.1841 10.711 86.7149 10.7118V10.7103ZM42.2824 17.8777C41.451 17.8771 40.6455 17.5882 40.0031 17.0604C39.3608 16.5325 38.9213 15.7982 38.7596 14.9826C38.598 14.1671 38.7241 13.3207 39.1164 12.5877C39.5088 11.8547 40.1432 11.2804 40.9116 10.9627C41.6799 10.645 42.5346 10.6035 43.3301 10.8453C44.1256 11.0871 44.8126 11.5972 45.2742 12.2888C45.7357 12.9804 45.9432 13.8105 45.8613 14.6379C45.7793 15.4653 45.4131 16.2387 44.8249 16.8263C44.4915 17.1608 44.0952 17.426 43.6588 17.6067C43.2225 17.7874 42.7547 17.88 42.2824 17.8791V17.8777ZM42.2824 10.7103C41.4561 10.711 40.6555 10.9981 40.0171 11.5228C39.3788 12.0474 38.942 12.7772 38.7814 13.5878C38.6207 14.3983 38.746 15.2395 39.136 15.9681C39.5259 16.6966 40.1564 17.2674 40.92 17.5832C41.6836 17.899 42.5331 17.9403 43.3237 17.7001C44.1143 17.4598 44.7972 16.9529 45.256 16.2657C45.7148 15.5784 45.9212 14.7534 45.8399 13.931C45.7586 13.1087 45.3948 12.34 44.8103 11.7559C44.4785 11.4238 44.0844 11.1607 43.6506 10.9815C43.2167 10.8023 42.7518 10.7107 42.2824 10.7118V10.7103Z" fill="black"/>
<circle cx="108" cy="21" r="4" fill="black"/>
<circle cx="108" cy="54" r="4" fill="black"/>
<circle cx="21" cy="54" r="4" fill="black"/>
<circle cx="4" cy="37" r="4" fill="black"/>
<circle cx="125" cy="37" r="4" fill="black"/>
<circle cx="21" cy="21" r="4" fill="black"/>
</svg>
