<svg width="24" height="24" viewBox="0 0 24 24" fill="none" xmlns="http://www.w3.org/2000/svg">
<path d="M6.82824 6.82837C8.3901 5.26647 8.3901 2.73332 6.82824 1.17142C5.26637 -0.390474 2.73326 -0.390474 1.1714 1.17142C-0.390466 2.73332 -0.390466 5.26647 1.1714 6.82837C2.73389 8.39089 5.26637 8.39089 6.82824 6.82837ZM22.8281 17.1716C21.2663 15.6097 18.7332 15.6097 17.1713 17.1716C15.6094 18.7335 15.6094 21.2667 17.1713 22.8286C18.7332 24.3905 21.2663 24.3905 22.8281 22.8286C24.3906 21.2667 24.3906 18.7341 22.8281 17.1716ZM22.7069 2.70707L21.2931 1.2933C20.5119 0.512038 19.2457 0.512038 18.465 1.2933L1.29327 18.4654C0.512028 19.2467 0.512028 20.5129 1.29327 21.2936L2.70701 22.7073C3.48826 23.4886 4.7545 23.4886 5.53512 22.7073L22.7069 5.53523C23.4881 4.75459 23.4881 3.48833 22.7069 2.70707Z" fill="white"/>
</svg>
