<svg width="24" height="24" viewBox="0 0 24 24" fill="none" xmlns="http://www.w3.org/2000/svg">
<path d="M16.1349 17.4254L12.5234 13.8125C12.3914 13.6804 12.2354 13.6564 12.1514 13.6564C12.0674 13.6564 11.9114 13.6804 11.7794 13.8125L8.15587 17.4374C7.74792 17.8455 7.112 18.5057 4.98825 18.5057L9.43972 22.9469C10.1146 23.6212 11.0295 24 11.9834 24C12.9373 24 13.8522 23.6212 14.5271 22.9469L18.9906 18.4937C17.8987 18.4937 16.9868 18.2777 16.1349 17.4254ZM8.15587 6.56256L11.7794 10.1875C11.8754 10.2835 12.0194 10.3436 12.1514 10.3436C12.2834 10.3436 12.4274 10.2835 12.5234 10.1875L16.1109 6.59857C16.9628 5.71034 17.9347 5.50629 19.0266 5.50629L14.5631 1.05311C13.8882 0.37877 12.9733 0 12.0194 0C11.0655 0 10.1506 0.37877 9.47572 1.05311L5.02425 5.49428C7.13599 5.49428 7.78392 6.19047 8.15587 6.56256Z" fill="white"/>
<path d="M22.9261 9.41934L20.2264 6.70662H18.7146C18.0667 6.70662 17.4188 6.97069 16.9748 7.43882L13.3752 11.0398C13.0393 11.3759 12.5953 11.5439 12.1514 11.5439C11.6942 11.5375 11.2567 11.3572 10.9275 11.0398L7.30396 7.40281C6.84802 6.94669 6.22409 6.68262 5.56417 6.68262H3.80038L1.05271 9.44335C0.378625 10.1185 0 11.0338 0 11.988C0 12.9423 0.378625 13.8575 1.05271 14.5327L3.80038 17.2934H5.57617C6.22409 17.2934 6.84802 17.0293 7.31596 16.5732L10.9395 12.9483C11.2755 12.6122 11.7194 12.4441 12.1634 12.4441C12.6073 12.4441 13.0513 12.6122 13.3872 12.9483L16.9988 16.5612C17.4548 17.0173 18.0787 17.2814 18.7386 17.2814H20.2504L22.9501 14.5687C23.627 13.8814 24.0045 12.9539 24 11.9891C23.9955 11.0242 23.6094 10.1003 22.9261 9.41934Z" fill="white"/>
</svg>
